<svg version="1" xmlns="http://www.w3.org/2000/svg" width="2666.667" height="2666.667" viewBox="0 0 2000.000000 2000.000000"><path d="M1887.8 817.7c-.8 1-23.9 52.4-51.2 114.2-39.2 88.7-49.4 112.6-48.5 113.7 1.5 1.8 11.9 1.9 14.2.1.9-.6 7.5-14.5 14.5-30.7l12.9-29.5 61.4-.2 61.4-.3 12.9 29.5c7.1 16.2 13.7 30.2 14.6 31 2.6 2.3 14.3 1.7 14.8-.7.3-1.6-96.9-224.8-99-227.6-1.5-1.8-6.3-1.5-8 .5zm31.2 88.8c14.4 34.1 26.5 62.6 26.7 63.2.4 1-10.9 1.3-54.5 1.3h-54.9l25.4-58.8c13.9-32.3 26.3-61 27.6-63.9 1.2-2.8 2.5-4.9 2.8-4.5.3.4 12.4 28.6 26.9 62.7zM100.2 819.5c-40.9 7.4-76 37.8-89.1 77-14.2 42.6-3.6 88.1 27.8 119.5 40.6 40.5 105.4 45.6 150.3 11.7 8.8-6.6 12.8-11 12.8-13.9 0-2.6-21.4-25.6-24.6-26.4-1.9-.5-4.2.6-9.9 4.5-13.9 9.6-25.4 13.8-41 14.8-33.3 2.1-63.1-19.8-72.7-53.4-3.2-11.1-3.2-29.5 0-40.7 6.8-23.7 24.6-43 46.6-50.3 7.2-2.4 9.6-2.7 21.6-2.8 10.3 0 14.9.4 19.5 1.8 9.3 2.9 19.4 7.9 26.9 13.6 3.8 2.8 7.4 5.1 7.9 5.1.6 0 6.6-5.5 13.4-12.3 14.9-14.9 15-15.2 6.3-22.9-20.8-18.3-44.6-26.9-74.2-26.7-7.8 0-17.6.7-21.6 1.4zM316.5 820c-46.6 10.1-82.1 46.9-90.6 94-1.7 9.3-1.7 32.3 0 41 4.6 23.5 15.6 44.5 32.1 61 12.9 13 27.8 22.3 44.8 28 34.6 11.6 73.4 6.2 103.7-14.3 7.9-5.4 21.4-18.5 27.4-26.6 24-32.5 29.2-75.7 13.7-113.8-10.7-26.2-34.6-50.7-60.5-61.9-15.5-6.7-24.7-8.6-44.1-9-14.6-.3-19-.1-26.5 1.6zm33.1 41.1c26.9 3.7 50.2 22.5 59.5 47.9 14.4 39.5-6.3 81.1-47.1 95-10 3.4-28 3.9-38.9 1.1-26.1-6.6-45-24.8-53.2-51.1-3-9.6-3.3-28-.6-38 7-26.2 28.7-47.7 53.9-53.4 11.4-2.6 16.3-2.9 26.4-1.5zM892 818.7c-26.7 4.5-45.7 19.8-53.6 43-2.2 6.4-2.7 9.6-2.7 17.8 0 11.9 1.2 17.6 5.8 27 8.3 17.2 24.4 30.1 53.1 42.6 22.3 9.6 33 16.7 38.3 25.3 3.3 5.3 4.5 12.8 3 18.9-1.7 7.2-9.1 14.6-17.3 17.1-13.9 4.4-34.8-1.6-56.6-16.4-5.1-3.4-8.8-3.8-11.9-1.3-2.9 2.5-15.1 24.2-15.1 26.9 0 5.5 19.2 18.3 35.8 24 49.8 17 97.9-.9 110.4-41.1 2.8-9 3-24.1.4-33-5.2-17.5-16.9-31.1-37-43-7.4-4.4-12.7-6.9-34.3-16.3-22.2-9.6-31.3-19.2-31.3-33 0-6.9 3.1-12.6 9.2-16.7 3.8-2.6 13.3-5.5 17.8-5.5 9 .1 26.5 6.7 40.9 15.5 3.2 1.9 6.8 3.5 7.8 3.5 3.5 0 7.3-4 14.5-14.8 8.7-13.3 8.9-15.7 1.3-21.4-10-7.6-27.3-15-43-18.3-6.5-1.4-29.1-1.9-35.5-.8zM1058.3 819.2c-1.4 1.8-46.5 222.1-46.1 225 .3 2 1 2.3 5.2 2.6 6 .4 9.2-.3 9.9-2.2.3-.7 8.5-42.7 18.2-93.2 9.7-50.6 17.9-92.7 18.3-93.6.4-1.1 12.1 32 32.6 93 17.5 52.1 32.5 95.7 33.2 96.9 1.6 2.6 7.4 3.2 9.2 1 .7-.8 60.8-177.9 65.4-192.7.3-.8 1 1.2 1.6 4.5 1.2 6.7 32.6 170 34.3 178.2 1.4 6.9 2.9 8.3 8.9 8.3 6.1 0 8-.7 8-3 0-2.8-44.9-221.2-46-223.8-.9-2-1.6-2.3-5.3-2l-4.2.3-4.4 12.5c-2.4 6.9-17.5 51.6-33.5 99.4l-29.3 86.9-21.6-64.4c-12-35.4-27-80.2-33.5-99.4l-11.7-35-4.1-.3c-2.5-.2-4.5.2-5.1 1zM499.7 822.8c-1.6 1.7-1.7 10.8-1.7 111 0 107.9 0 109.2 2 111.2s3.3 2 63 2h61.1l2.4-2.5c2.4-2.3 2.5-2.8 2.5-17.3 0-13.3-.2-15.3-1.9-17.3l-1.9-2.4-42.1-.3-42.1-.3v-90.3c0-89.9 0-90.3-2.1-93l-2-2.6h-17.8c-16 0-18 .2-19.4 1.8zM662.1 823.6c-2.1 2.7-2.1 2.9-2.1 110.6v107.9l2.5 2.4 2.4 2.5h67.3c59.3 0 67.6-.2 69.6-1.6 2.1-1.5 2.2-2.1 2.2-17.7 0-8.9-.4-16.7-.8-17.3-2.1-3.2-5.2-3.4-52.6-3.4H703v-55h81.9l2.1-2.7c2-2.6 2.1-3.7 1.8-18.1-.3-14.8-.4-15.5-2.7-17.3-2.2-1.8-4.5-1.9-42.7-1.9H703v-52h48.8c46.1 0 49-.1 50.5-1.8 1.4-1.6 1.7-4.4 1.7-17.9 0-14.2-.2-16.2-1.8-17.6-1.7-1.6-8-1.7-70-1.7h-68.1l-2 2.6zM1307 822.9c-.7 1.3-1 37.9-1 111.4 0 104.7.1 109.5 1.8 111s7.8 1.7 67.8 1.7c50 0 66.3-.3 67.2-1.2.7-.7 1.2-3.3 1.2-5.9 0-8.4 3.7-7.9-63.2-7.9h-58.7l-.1-47v-47h51.8c49 0 52-.1 53.5-1.8 2.4-2.6 2.2-8.7-.3-11.2-1.9-1.9-3.3-2-53.5-2H1322v-87l60.1-.2c52-.3 60.1-.5 60.9-1.8 1.4-2.1 1.2-10.4-.2-11.8-.9-.9-17.4-1.2-68-1.2-64.9 0-66.8.1-67.8 1.9zM1499.7 822.8c-1.6 1.7-1.7 9.3-1.7 110.8 0 97 .2 109.2 1.6 111.2l1.5 2.2h38.7c50.2 0 59.4-1.3 80.8-11.5 42.2-20.2 68.5-66.7 63.5-112.6-5.1-47.3-38.1-85.7-84.6-98.5l-10-2.8-44-.4c-42.2-.3-44.1-.2-45.8 1.6zm96.8 16.5c17.9 5.5 31.1 13.2 43 25.2 28.9 28.9 36.3 74.2 18.5 112.3-5.1 10.9-11 19-20.1 27.8-9.2 8.8-14.6 12.4-26.2 17.9-17.6 8.2-21.3 8.8-61.7 9.3l-35.5.4V835.9l36.5.3c36.4.4 36.5.4 45.5 3.1zM1737.2 822.2c-.9.9-1.2 27-1.2 111.4 0 98.9.2 110.4 1.6 111.8 1.8 1.8 9.5 2.2 12.5.6 1.9-1 1.9-3.3 1.9-111.8 0-84.9-.3-111.1-1.2-112-.7-.7-3.7-1.2-6.8-1.2-3.1 0-6.1.5-6.8 1.2zM84.8 1084.4c-.7.7-6.7 19.8-13.3 42.4-6.6 22.6-12.3 40.8-12.6 40.4-.3-.4-5-16.2-10.4-35.2-14.6-51.5-12.9-47-17.1-47-3.4 0-3.5.2-2.9 2.7.3 1.6 6.7 24.2 14.3 50.3 12.4 42.9 13.9 47.5 15.9 47.8 1.4.2 2.3-.3 2.7-1.5.3-1 6-20.2 12.6-42.8 11-37 13-43.4 13-41.1 0 .5 20.2 69.3 24.6 83.9.4 1.2 1.3 1.7 2.7 1.5 2-.3 3.5-4.9 15.9-47.8 7.6-26.1 14-48.7 14.3-50.3.6-2.5.5-2.7-2.8-2.7-4.2 0-2.7-4.1-16.7 45.5-9.2 32.4-12 41-12 36.4 0-1.1-13.2-46.5-23.6-81.1-.7-2.2-3.1-3-4.6-1.4zM817.5 1084c-24.8 3.9-43.5 25.8-43.5 51 0 32.3 30.2 56.6 62.2 49.9 12.8-2.7 26.7-12.6 33.5-24.1 10-16.5 9-39.1-2.3-55.5-10.6-15.5-31.2-24.3-49.9-21.3zm16.6 7.4c18.5 4 32 18.1 35.1 37.1 4.5 27.2-18.5 52.1-46.6 50.2-13.8-.9-24.8-6.6-32.8-17.2-12.5-16.4-11.4-41.1 2.5-56.2 7.4-8 15.3-12.4 25.7-14.3 6.7-1.2 8.9-1.1 16.1.4zM990.6 1083.9c-1.1 1.7-20.6 98.6-20.2 99.8.9 2.2 5.5 1.5 6.6-1 .5-1.2 3.9-17.7 7.5-36.7 3.6-19 7-37 7.7-40l1.1-5.5 14.2 42.5c13.3 39.7 14.3 42.5 16.5 42.5 2.2 0 3.3-2.8 16.6-42 7.8-23.1 14.5-41.3 14.8-40.5.2.8 3.9 19.2 8 40.9 4.2 21.7 8 39.9 8.5 40.4 1.3 1.3 5.5.4 5.9-1.3.4-2.4-19.5-98.1-20.6-99.2-.6-.6-1.7-.8-2.5-.5-.8.3-7.3 18.3-15.8 43.6-7.9 23.7-14.6 43.1-14.9 43.1-.3 0-6.5-18.1-13.9-40.3-7.4-22.1-14-41.7-14.7-43.5-1.2-3-3.6-4.2-4.8-2.3zM1181.3 1083.7c-1.7.6-1.9 99.8-.2 100.8.5.4 2.1.4 3.4.1l2.5-.6.2-43 .3-43 26 34.2c39 51.2 41.2 54 43.8 53.6l2.2-.3v-100l-3.2-.3-3.3-.3-.1 41.8c-.1 23 0 42.5.1 43.3.1 1.3 0 1.3-1.3 0-.9-.8-16.2-20.6-34.1-44-18-23.4-33.2-42.6-33.9-42.7-.6-.1-1.8.1-2.4.4zM1400.7 1084.4c-9.7 2.7-16.7 11.5-16.7 21 0 6.5 3.2 13.5 9.3 20.2l4.6 5-6.5 4.7c-9 6.6-14.4 15.6-14.4 24.3 0 5.5 3 13.4 6.7 17.5 4.9 5.4 10.4 8.1 17.8 8.7 11.4.9 21.9-2.8 30.6-10.6l5-4.5 7.9 7.8c7.8 7.8 8 7.9 10 6 1.1-1 2-2.3 2-2.9 0-.6-3.5-4.5-7.7-8.8l-7.7-7.7 2.6-4.8c5.8-10.7 9.6-29.6 6.5-32.2-.9-.7-2.4-1.1-3.4-.9-1.5.3-1.9 1.7-2.4 7.3-.8 8.7-2.4 14.5-5.6 20.9l-2.5 4.9-13.9-13.9c-7.6-7.6-13.9-14-13.9-14.1 0-.1 2.4-1.8 5.3-3.6 6.3-4.1 13.1-10.6 15-14.4 5.2-10.1 1-23-9.2-28.2-5-2.6-13.5-3.3-19.4-1.7zm16.4 7.8c4.1 2.3 7.9 8.5 7.9 12.9-.1 6.7-7.1 15-17.4 20.4l-3.8 2-5-5.5c-6.1-6.5-7.8-10.3-7.8-16.8 0-9.1 6.7-15.2 16.8-15.2 3.7 0 6.7.7 9.3 2.2zm14.7 73.9c.6 1.6-6.3 7.1-12.7 10.2-5.2 2.5-7.7 3-13.5 3.1-9.8.1-15.7-3.3-19.2-10.7-5.1-11-1.1-22.1 10.9-30.2l5.2-3.5 14.5 15.1c8 8.4 14.6 15.6 14.8 16zM1703.1 1084c-18.5 3.9-28.1 20.8-20.3 36.1 3.6 7.1 9.9 11.5 24.7 16.9 19.2 7.1 25.6 12.1 27 21.4.8 5.3-1 9.9-5.5 14.3-9.6 9.3-27.5 8.3-41.8-2.4-3.2-2.4-3.4-2.4-5.3-.7-1 .9-1.9 2.3-1.9 2.9 0 1.8 6.1 6.2 13.8 9.8 6.1 2.9 7.5 3.2 16.7 3.2 8.1 0 10.9-.4 14.6-2.1 5.9-2.8 12.5-8.7 15-13.5 2.3-4.6 2.6-14.4.5-19.4-3.1-7.4-14.5-15.1-29.6-20-8.7-2.8-16.4-7.1-19.7-10.9-5.6-6.3-5.3-16.2.9-22.5 4.7-4.8 9.1-6.4 18.3-6.5 7.1 0 8.8.3 15.4 3.4l7.3 3.4 2-2.4 2-2.4-2.5-2.2c-5.6-4.8-22.6-8.2-31.6-6.4zM1831.5 1084.1c-9.4 1.4-20.9 7.6-28.3 15.3-27.6 28.7-14.3 75 24.4 85.1 10.8 2.8 25.6 1.5 38.4-3.4 10.5-4 10.1-3.1 10.2-23.5 0-9.8-.4-18.2-.9-18.7s-7.7-.8-16.4-.7l-15.4.3-.3 3.2-.3 3.3h26.1v26.8l-5.1 2.2c-20 8.5-39.9 5.8-53.8-7.5-26.3-25.1-12.8-69.3 23.2-75.5 11.2-2 24.6 1.6 34 9.2l3.9 3.1 2.1-2.2c2.8-2.7 1.9-4.3-5.3-9.4-9.3-6.5-23.8-9.6-36.5-7.6zM1899.7 1083.7c-.4.3-.7 23.1-.7 50.5 0 45.2.2 49.9 1.6 50.5.9.3 2.4.2 3.3-.4 1.4-.9 1.7-5.8 2.1-43.5l.5-42.5 19.4 25.6c40.2 52.9 47.5 62 49.7 62.1 1.2 0 2.5-.7 2.8-1.6.9-2.4.7-96.7-.3-98.2-.5-.8-2.1-1.2-3.7-1l-2.9.3-.3 42.8-.2 42.8-31.7-41.3c-17.4-22.7-32.7-42.5-34.1-44.1-2.6-2.7-4.2-3.3-5.5-2zM162.5 1086.2c-.3.7-.4 23.1-.3 49.8l.3 48.5h60v-6l-26.7-.3-26.8-.2v-41l23.3-.2 23.2-.3v-6l-23.2-.3-23.3-.2v-38h25.8c14.1 0 26.3-.4 27-.9.8-.4 1.2-1.9 1-3.2l-.3-2.4-29.8-.3c-23.3-.2-29.9 0-30.2 1zM244.7 1085.7c-.4.3-.7 22.3-.7 48.8 0 41.4.2 48.4 1.5 49.5 1.1.9 6.5 1.1 21.2.8 23.7-.6 27.1-1.5 34.8-9.2 6.1-6.1 7.9-11.4 7.3-21-.5-8.1-4-13.7-11.4-18.1l-5-3 4.1-3c12.5-9.3 12.6-30.4.2-39.5-6.9-5.1-11.9-6-32.7-6-10.3 0-19 .3-19.3.7zm42.8 8.2c7.4 3.4 10.5 8.5 10.5 17.3 0 7.4-3.1 13.2-8.8 16.6-4.5 2.6-5.4 2.7-20.9 3.1l-16.3.3V1092h15.8c13.1 0 16.4.3 19.7 1.9zm3 46.3c3.4 1.8 7.7 6.2 9.4 9.5.6 1.2 1.1 4.8 1.1 8 0 7.6-2.9 12.7-9.4 16.8l-4.9 3-17.9.3-17.8.4v-20c0-10.9.2-20.1.4-20.3.2-.2 8.5-.2 18.3.1 14 .4 18.4.9 20.8 2.2zM358.7 1085.7c-.4.3-.7 22.3-.7 48.8 0 36.1.3 48.4 1.2 49.3.8.8 6.2 1.2 17.7 1.2 25.5 0 35.5-3 47.1-13.6 6.8-6.4 11.2-12.9 13.9-20.6 9.4-27.2-6.8-56.8-35-64.3-5.6-1.5-42.9-2.2-44.2-.8zm44.2 8.2c16 5 26.4 17 29.3 33.7 2.2 13.4-1.9 26.9-11.1 36.7-9.9 10.4-19.6 13.7-41.3 13.7H366v-86h15.4c12.3 0 16.6.4 21.5 1.9zM461.2 1134.7l.3 49.8 28 .3c15.4.1 29 0 30.3-.3 1.8-.4 2.3-1.1 2-3.3l-.3-2.7-26.7-.3-26.8-.2v-41l23.3-.2 23.2-.3v-6l-23.2-.3-23.3-.2v-38l26.1-.2c22.8-.3 26.3-.5 27.2-1.9.6-.9.7-2.4.4-3.3-.6-1.4-3.8-1.6-30.7-1.6h-30l.2 49.7zM529 1086.2c0 .7 9.7 23.4 21.6 50.5 16.5 37.4 22.1 49.3 23.4 49.3 1.3 0 7-12 23.5-48.8 12-26.8 22-49.5 22.3-50.5.4-1.6-.1-1.8-3.2-1.5l-3.8.3-19.1 43.7c-10.6 24-19.4 43.5-19.7 43.3-.3-.2-9-19.9-19.4-43.9l-19-43.6h-3.3c-1.9 0-3.3.5-3.3 1.2zM633.7 1085.7c-.4.3-.7 22.6-.7 49.4v48.9l2.3.5c1.2.3 14.8.4 30.2.3l28-.3v-6l-26.2-.3-26.3-.2v-41l22.8-.2 22.7-.3v-6l-22.7-.3-22.8-.2v-38l26.3-.2 26.2-.3.3-3.3.3-3.2h-29.9c-16.4 0-30.2.3-30.5.7zM715.6 1086.5c-.3.9-.6 22.9-.6 49 0 38.8.2 47.5 1.4 48.4.9.8 9 1.1 27.2.9l25.9-.3v-6l-23.2-.3-23.3-.2-.2-46.3-.3-46.2-3.1-.3c-2.2-.2-3.3.2-3.8 1.3zM897 1134.4c0 33.7.3 49.7 1.1 50.1.5.4 2.1.4 3.5.1l2.4-.6v-35h15.8c19.1 0 22.9-1 30.7-8.2 7.7-7.1 11-14.1 10.9-23.8 0-5.4-.6-8.8-2.1-12.2-2.8-6.2-9.6-13.4-15.8-16.6-4.9-2.6-5.5-2.7-25.7-3l-20.8-.3v49.5zm39.9-40.8c6.7 1.9 14.1 9 15.9 15 2.8 9.5.2 20.4-6.4 26.6-6.1 5.7-10.4 6.8-27.1 6.8H904v-50h13.8c9.7 0 15.4.5 19.1 1.6zM1097.6 1086.6c-.3.9-.6 22.8-.6 48.8 0 35.4.3 47.5 1.2 48.4.9.9 8.9 1.2 29.9 1.2 30.7 0 31.9-.2 30.4-5-.6-1.9-1.3-2-27.1-2H1105v-41l22.6-.2c19.6-.3 22.8-.5 23.7-1.9.6-.9.7-2.4.4-3.3-.6-1.4-3.3-1.6-23.7-1.6h-23v-38l26.1-.2c22.8-.3 26.3-.5 27.2-1.9.6-.9.7-2.4.4-3.3-.6-1.4-3.8-1.6-30.6-1.6-26.3 0-30 .2-30.5 1.6zM1273.2 1088.2l.3 3.3 14.3.3 14.2.3v45.9c0 31.1.3 46.1 1.1 46.5.5.4 2.1.4 3.5.1l2.4-.6v-92h12.9c7.1 0 13.6-.3 14.5-.6 1-.4 1.6-1.8 1.6-3.5v-2.9h-65.1l.3 3.2zM1502.2 1134.7l.3 49.8 16 .3c8.8.1 19.1-.2 23-.8 32.9-5.1 51.8-41.1 37.3-71-3.7-7.7-13.8-18.2-21.4-22.2-9-4.8-15-5.8-36.1-5.8H1502l.2 49.7zm49.9-38.5c14.2 7 22.7 19.6 23.6 35.1 1.2 18.7-7.5 34.5-23.2 41.8-8.2 3.9-14.5 4.9-30.1 4.9H1509v-86.2l17.8.4 17.8.3 7.5 3.7zM1604.5 1086.2c-.3.7-.4 23.1-.3 49.8l.3 48.5h60v-6l-26.8-.3-26.8-.2.1-20.5.1-20.5 23.2-.2 23.2-.3v-6l-23.3-.3-23.3-.2.1-19 .2-19h25.6c14.1 0 26.3-.4 27-.9.8-.4 1.2-1.9 1-3.2l-.3-2.4-29.8-.3c-23.3-.2-29.9 0-30.2 1zM1761.7 1085.7c-.4.3-.7 22.6-.7 49.4v48.9l2.5.6c5.6 1.4 5.5 2.3 5.5-49.1 0-26.1-.3-48-.6-48.9-.6-1.6-5.4-2.2-6.7-.9z"/></svg>