<?xml version="1.0" encoding="UTF-8"?>
<svg width="13px" height="13px" viewBox="0 0 13 13" version="1.1" xmlns="http://www.w3.org/2000/svg" xmlns:xlink="http://www.w3.org/1999/xlink">
    <!-- Generator: Sketch 43.1 (39012) - http://www.bohemiancoding.com/sketch -->
    <title>github-white</title>
    <desc>Created with Sketch.</desc>
    <defs></defs>
    <g id="Page-1" stroke="none" stroke-width="1" fill="none" fill-rule="evenodd">
        <g id="Mobile-Portrait" transform="translate(-56.000000, -2381.000000)">
            <g id="site" transform="translate(-66.000000, 12.000000)">
                <g id="footer" transform="translate(66.000000, 2176.000000)">
                    <rect id="Rectangle-6" x="0" y="0" width="320" height="278"></rect>
                    <g id="Group-50" transform="translate(56.000000, 63.000000)" fill="#FFFFFF">
                        <g id="Group-49" transform="translate(0.000000, 105.000000)">
                            <path d="M0,31.5004333 C0,34.3721333 1.86246667,36.8083333 4.44556667,37.6676333 C4.77056667,37.7274333 4.88886667,37.5268 4.88886667,37.3543333 C4.88886667,37.2000667 4.88366667,36.7914333 4.8802,36.2489 C3.07233333,36.6419333 2.69056667,35.3774667 2.69056667,35.3774667 C2.39503333,34.6269333 1.96906667,34.4267333 1.96906667,34.4267333 C1.37886667,34.0237333 2.0137,34.0315333 2.0137,34.0315333 C2.66586667,34.0774667 3.0095,34.7014667 3.0095,34.7014667 C3.5893,35.6951 4.5305,35.4082333 4.901,35.2418333 C4.95993333,34.8215 5.12806667,34.5350667 5.31353333,34.3725667 C3.8701,34.2087667 2.353,33.6510667 2.353,31.1602667 C2.353,30.4504667 2.60606667,29.8702333 3.02206667,29.4161 C2.9549,29.2514333 2.73216667,28.5906 3.08576667,27.6957667 C3.08576667,27.6957667 3.63133333,27.5211333 4.87326667,28.3622333 C5.39153333,28.2179333 5.9475,28.146 6.50043333,28.1434 C7.0525,28.146 7.60846667,28.2179333 8.1276,28.3622333 C9.36866667,27.5211333 9.91336667,27.6957667 9.91336667,27.6957667 C10.2678333,28.5906 10.0446667,29.2514333 9.97793333,29.4161 C10.3948,29.8702333 10.6461333,30.4504667 10.6461333,31.1602667 C10.6461333,33.6571333 9.12643333,34.2066 7.67823333,34.3678 C7.9118,34.5684333 8.1198,34.9649333 8.1198,35.5711667 C8.1198,36.4404333 8.11156667,37.1415667 8.11156667,37.3543333 C8.11156667,37.5281 8.229,37.7304667 8.55876667,37.6672 C11.1392667,36.8057333 13,34.3712667 13,31.5004333 C13,27.9102667 10.0893,25 6.49956667,25 C2.91026667,25 0,27.9102667 0,31.5004333 Z" id="github-white"></path>
                        </g>
                    </g>
                </g>
            </g>
        </g>
    </g>
</svg>