<?xml version="1.0" encoding="UTF-8"?>
<svg width="12px" height="12px" viewBox="0 0 12 12" version="1.1" xmlns="http://www.w3.org/2000/svg" xmlns:xlink="http://www.w3.org/1999/xlink">
    <!-- Generator: Sketch 43.1 (39012) - http://www.bohemiancoding.com/sketch -->
    <title>linkedin-white</title>
    <desc>Created with Sketch.</desc>
    <defs></defs>
    <g id="Page-1" stroke="none" stroke-width="1" fill="none" fill-rule="evenodd">
        <g id="Mobile-Portrait" transform="translate(-57.000000, -2356.000000)">
            <g id="site" transform="translate(-66.000000, 12.000000)">
                <g id="footer" transform="translate(66.000000, 2176.000000)">
                    <rect id="Rectangle-6" x="0" y="0" width="320" height="278"></rect>
                    <g id="Group-50" transform="translate(56.000000, 63.000000)" fill="#FFFFFF">
                        <g id="Group-49" transform="translate(0.000000, 105.000000)">
                            <path d="M12.112,0 L1.88523077,0 C1.39692308,0 1,0.387230769 1,0.865384615 L1,11.1341538 C1,11.6118462 1.39692308,12 1.88523077,12 L12.112,12 C12.6012308,12 12.9995385,11.6118462 12.9995385,11.1341538 L12.9995385,0.865384615 C12.9995385,0.387230769 12.6012308,0 12.112,0 L12.112,0 Z M2.84615385,4.61538462 L4.69230769,4.61538462 L4.69230769,10.1538462 L2.84615385,10.1538462 L2.84615385,4.61538462 Z M3.76969231,3.87692308 C3.15630769,3.87692308 2.66153846,3.38076923 2.66153846,2.76923077 C2.66153846,2.15769231 3.15630769,1.66153846 3.76969231,1.66153846 C4.38076923,1.66153846 4.87692308,2.15769231 4.87692308,2.76923077 C4.87692308,3.38076923 4.38076923,3.87692308 3.76969231,3.87692308 L3.76969231,3.87692308 Z M11.1538462,10.1538462 L9.30769231,10.1538462 L9.30769231,7.38461538 C9.30769231,6.63461538 9.10553846,5.922 8.38461538,5.922 C7.66323077,5.922 7.46153846,6.64569231 7.46153846,7.39292308 L7.46153846,10.1538462 L5.61538462,10.1538462 L5.61538462,4.61538462 L7.46153846,4.61538462 L7.46153846,5.28138462 L7.55384615,5.28138462 C7.79107692,4.83138462 8.38461538,4.44876923 9.09030769,4.44876923 C10.7933846,4.44876923 11.1538462,5.56753846 11.1538462,6.92307692 L11.1538462,10.1538462 L11.1538462,10.1538462 Z" id="linkedin-white"></path>
                        </g>
                    </g>
                </g>
            </g>
        </g>
    </g>
</svg>