<?xml version="1.0" encoding="UTF-8"?>
<svg width="17px" height="15px" viewBox="0 0 17 15" version="1.1" xmlns="http://www.w3.org/2000/svg" xmlns:xlink="http://www.w3.org/1999/xlink">
    <!-- Generator: Sketch 43.1 (39012) - http://www.bohemiancoding.com/sketch -->
    <title>Shape</title>
    <desc>Created with Sketch.</desc>
    <defs></defs>
    <g id="Page-1" stroke="none" stroke-width="1" fill="none" fill-rule="evenodd">
        <g id="Mobile-Portrait" transform="translate(-53.000000, -291.000000)" fill-rule="nonzero" fill="#B9B9B9">
            <g id="site" transform="translate(-59.000000, 12.000000)">
                <g id="Group-28" transform="translate(112.000000, 275.000000)">
                    <g id="Group-4">
                        <g id="two-quotes" transform="translate(8.500000, 11.500000) scale(-1, -1) translate(-8.500000, -11.500000) translate(0.000000, 4.000000)">
                            <path d="M3.17884964,0.125102819 C1.423167,0.125102819 0,1.60057372 0,3.42052621 C0,5.24069839 1.423167,6.7159496 3.17884964,6.7159496 C6.35748124,6.7159496 4.23832083,13.0871015 0,13.0871015 L0,14.6249657 C7.56391345,14.6249657 10.5284268,0.125102819 3.17884964,0.125102819 Z M12.3366578,0.125102819 C10.5809751,0.125102819 9.15780815,1.60057372 9.15780815,3.42052621 C9.15780815,5.24069839 10.5809751,6.7159496 12.3366578,6.7159496 C15.5152894,6.7159496 13.396129,13.0871015 9.15780815,13.0871015 L9.15780815,14.6249657 C16.7217216,14.6249657 19.6862349,0.125102819 12.3366578,0.125102819 Z" id="Shape"></path>
                        </g>
                    </g>
                </g>
            </g>
        </g>
    </g>
</svg>