<?xml version="1.0" encoding="UTF-8"?>
<svg width="14px" height="14px" viewBox="0 0 14 14" version="1.1" xmlns="http://www.w3.org/2000/svg" xmlns:xlink="http://www.w3.org/1999/xlink">
    <!-- Generator: Sketch 43.1 (39012) - http://www.bohemiancoding.com/sketch -->
    <title>sc-github</title>
    <desc>Created with Sketch.</desc>
    <defs></defs>
    <g id="Page-1" stroke="none" stroke-width="1" fill="none" fill-rule="evenodd">
        <g id="Mobile-Portrait" transform="translate(-101.000000, -2051.000000)" fill="#303030">
            <g id="site" transform="translate(-66.000000, 12.000000)">
                <g id="Group-8" transform="translate(166.000000, 1895.000000)">
                    <g id="Group-2" transform="translate(1.000000, 38.000000)">
                        <g id="Group-9">
                            <g id="Group-5">
                                <g id="Icon-GitHub" transform="translate(0.000000, 106.000000)">
                                    <path d="M0,7.00046667 C0,10.0930667 2.00573333,12.7166667 4.78753333,13.6420667 C5.13753333,13.7064667 5.26493333,13.4904 5.26493333,13.3046667 C5.26493333,13.1385333 5.25933333,12.6984667 5.2556,12.1142 C3.30866667,12.5374667 2.89753333,11.1757333 2.89753333,11.1757333 C2.57926667,10.3674667 2.12053333,10.1518667 2.12053333,10.1518667 C1.48493333,9.71786667 2.1686,9.72626667 2.1686,9.72626667 C2.87093333,9.77573333 3.241,10.4477333 3.241,10.4477333 C3.8654,11.5178 4.879,11.2088667 5.278,11.0296667 C5.34146667,10.577 5.52253333,10.2685333 5.72226667,10.0935333 C4.1678,9.91713333 2.534,9.31653333 2.534,6.63413333 C2.534,5.86973333 2.80653333,5.24486667 3.25453333,4.7558 C3.1822,4.57846667 2.94233333,3.8668 3.32313333,2.90313333 C3.32313333,2.90313333 3.91066667,2.71506667 5.24813333,3.62086667 C5.80626667,3.46546667 6.405,3.388 7.00046667,3.3852 C7.595,3.388 8.19373333,3.46546667 8.7528,3.62086667 C10.0893333,2.71506667 10.6759333,2.90313333 10.6759333,2.90313333 C11.0576667,3.8668 10.8173333,4.57846667 10.7454667,4.7558 C11.1944,5.24486667 11.4650667,5.86973333 11.4650667,6.63413333 C11.4650667,9.32306667 9.82846667,9.9148 8.26886667,10.0884 C8.5204,10.3044667 8.7444,10.7314667 8.7444,11.3843333 C8.7444,12.3204667 8.73553333,13.0755333 8.73553333,13.3046667 C8.73553333,13.4918 8.862,13.7097333 9.21713333,13.6416 C11.9961333,12.7138667 14,10.0921333 14,7.00046667 C14,3.13413333 10.8654,0 6.99953333,0 C3.13413333,0 0,3.13413333 0,7.00046667 Z" id="Fill-123"></path>
                                </g>
                            </g>
                        </g>
                    </g>
                </g>
            </g>
        </g>
    </g>
</svg>