<?xml version="1.0" encoding="UTF-8"?>
<svg width="13px" height="13px" viewBox="0 0 13 13" version="1.1" xmlns="http://www.w3.org/2000/svg" xmlns:xlink="http://www.w3.org/1999/xlink">
    <!-- Generator: Sketch 43.1 (39012) - http://www.bohemiancoding.com/sketch -->
    <title>sc-linkedin</title>
    <desc>Created with Sketch.</desc>
    <defs></defs>
    <g id="Page-1" stroke="none" stroke-width="1" fill="none" fill-rule="evenodd">
        <g id="Mobile-Portrait" transform="translate(-128.000000, -2052.000000)" fill="#303030">
            <g id="site" transform="translate(-66.000000, 12.000000)">
                <g id="Group-8" transform="translate(166.000000, 1895.000000)">
                    <g id="Group-2" transform="translate(1.000000, 38.000000)">
                        <g id="Group-9">
                            <g id="Group-5">
                                <g id="Icon-LinkedIn" transform="translate(27.000000, 107.000000)">
                                    <path d="M12.038,0 L0.959,0 C0.43,0 0,0.4195 0,0.9375 L0,12.062 C0,12.5795 0.43,13 0.959,13 L12.038,13 C12.568,13 12.9995,12.5795 12.9995,12.062 L12.9995,0.9375 C12.9995,0.4195 12.568,0 12.038,0 L12.038,0 Z M2,5 L4,5 L4,11 L2,11 L2,5 Z M3.0005,4.2 C2.336,4.2 1.8,3.6625 1.8,3 C1.8,2.3375 2.336,1.8 3.0005,1.8 C3.6625,1.8 4.2,2.3375 4.2,3 C4.2,3.6625 3.6625,4.2 3.0005,4.2 L3.0005,4.2 Z M11,11 L9,11 L9,8 C9,7.1875 8.781,6.4155 8,6.4155 C7.2185,6.4155 7,7.1995 7,8.009 L7,11 L5,11 L5,5 L7,5 L7,5.7215 L7.1,5.7215 C7.357,5.234 8,4.8195 8.7645,4.8195 C10.6095,4.8195 11,6.0315 11,7.5 L11,11 L11,11 Z" id="Fill-3"></path>
                                </g>
                            </g>
                        </g>
                    </g>
                </g>
            </g>
        </g>
    </g>
</svg>